<mxfile host="app.diagrams.net" agent="Mozilla/5.0 (Windows NT 10.0; Win64; x64) AppleWebKit/537.36 (KHTML, like Gecko) Chrome/137.0.0.0 Safari/537.36" version="28.2.3" pages="2">
  <diagram name="Página-1" id="tgtMDl4pr0dohB6R7JWA">
    <mxGraphModel grid="1" page="1" gridSize="10" guides="1" tooltips="1" connect="1" arrows="1" fold="1" pageScale="1" pageWidth="827" pageHeight="1169" math="0" shadow="0">
      <root>
        <mxCell id="0" />
        <mxCell id="1" parent="0" />
        <mxCell id="5-i4zEFZj5qR5DQi6_iw-1" value="&lt;b&gt;Usuarios&lt;/b&gt;" style="swimlane;fontStyle=0;childLayout=stackLayout;horizontal=1;startSize=26;fillColor=none;horizontalStack=0;resizeParent=1;resizeParentMax=0;resizeLast=0;collapsible=1;marginBottom=0;whiteSpace=wrap;html=1;" vertex="1" parent="1">
          <mxGeometry x="480" y="670.5" width="140" height="234" as="geometry" />
        </mxCell>
        <mxCell id="5-i4zEFZj5qR5DQi6_iw-2" value="Id (PK)" style="text;strokeColor=none;fillColor=none;align=left;verticalAlign=top;spacingLeft=4;spacingRight=4;overflow=hidden;rotatable=0;points=[[0,0.5],[1,0.5]];portConstraint=eastwest;whiteSpace=wrap;html=1;" vertex="1" parent="5-i4zEFZj5qR5DQi6_iw-1">
          <mxGeometry y="26" width="140" height="26" as="geometry" />
        </mxCell>
        <mxCell id="5-i4zEFZj5qR5DQi6_iw-3" value="&lt;div&gt;Nombre&lt;/div&gt;&lt;div&gt;&lt;br&gt;&lt;/div&gt;" style="text;strokeColor=none;fillColor=none;align=left;verticalAlign=top;spacingLeft=4;spacingRight=4;overflow=hidden;rotatable=0;points=[[0,0.5],[1,0.5]];portConstraint=eastwest;whiteSpace=wrap;html=1;" vertex="1" parent="5-i4zEFZj5qR5DQi6_iw-1">
          <mxGeometry y="52" width="140" height="26" as="geometry" />
        </mxCell>
        <mxCell id="5-i4zEFZj5qR5DQi6_iw-71" value="Documento" style="text;strokeColor=none;fillColor=none;align=left;verticalAlign=top;spacingLeft=4;spacingRight=4;overflow=hidden;rotatable=0;points=[[0,0.5],[1,0.5]];portConstraint=eastwest;whiteSpace=wrap;html=1;" vertex="1" parent="5-i4zEFZj5qR5DQi6_iw-1">
          <mxGeometry y="78" width="140" height="26" as="geometry" />
        </mxCell>
        <mxCell id="67xACYd7VsZA4SW91HEJ-4" value="Direccion" style="text;strokeColor=none;fillColor=none;align=left;verticalAlign=top;spacingLeft=4;spacingRight=4;overflow=hidden;rotatable=0;points=[[0,0.5],[1,0.5]];portConstraint=eastwest;whiteSpace=wrap;html=1;" vertex="1" parent="5-i4zEFZj5qR5DQi6_iw-1">
          <mxGeometry y="104" width="140" height="26" as="geometry" />
        </mxCell>
        <mxCell id="67xACYd7VsZA4SW91HEJ-3" value="Telefono" style="text;strokeColor=none;fillColor=none;align=left;verticalAlign=top;spacingLeft=4;spacingRight=4;overflow=hidden;rotatable=0;points=[[0,0.5],[1,0.5]];portConstraint=eastwest;whiteSpace=wrap;html=1;" vertex="1" parent="5-i4zEFZj5qR5DQi6_iw-1">
          <mxGeometry y="130" width="140" height="26" as="geometry" />
        </mxCell>
        <mxCell id="7vwgbHq6l0im-6B_oPkw-1" value="Correo" style="text;strokeColor=none;fillColor=none;align=left;verticalAlign=top;spacingLeft=4;spacingRight=4;overflow=hidden;rotatable=0;points=[[0,0.5],[1,0.5]];portConstraint=eastwest;whiteSpace=wrap;html=1;" vertex="1" parent="5-i4zEFZj5qR5DQi6_iw-1">
          <mxGeometry y="156" width="140" height="26" as="geometry" />
        </mxCell>
        <mxCell id="7vwgbHq6l0im-6B_oPkw-2" value="Contraseña" style="text;strokeColor=none;fillColor=none;align=left;verticalAlign=top;spacingLeft=4;spacingRight=4;overflow=hidden;rotatable=0;points=[[0,0.5],[1,0.5]];portConstraint=eastwest;whiteSpace=wrap;html=1;" vertex="1" parent="5-i4zEFZj5qR5DQi6_iw-1">
          <mxGeometry y="182" width="140" height="26" as="geometry" />
        </mxCell>
        <mxCell id="67xACYd7VsZA4SW91HEJ-5" value="Fecha_Nacimiento" style="text;strokeColor=none;fillColor=none;align=left;verticalAlign=top;spacingLeft=4;spacingRight=4;overflow=hidden;rotatable=0;points=[[0,0.5],[1,0.5]];portConstraint=eastwest;whiteSpace=wrap;html=1;" vertex="1" parent="5-i4zEFZj5qR5DQi6_iw-1">
          <mxGeometry y="208" width="140" height="26" as="geometry" />
        </mxCell>
        <mxCell id="5-i4zEFZj5qR5DQi6_iw-5" value="&lt;b&gt;Sanciones&lt;/b&gt;" style="swimlane;fontStyle=0;childLayout=stackLayout;horizontal=1;startSize=26;fillColor=none;horizontalStack=0;resizeParent=1;resizeParentMax=0;resizeLast=0;collapsible=1;marginBottom=0;whiteSpace=wrap;html=1;" vertex="1" parent="1">
          <mxGeometry x="250" y="631.5" width="170" height="156" as="geometry" />
        </mxCell>
        <mxCell id="5-i4zEFZj5qR5DQi6_iw-6" value="&lt;span data-end=&quot;1306&quot; data-start=&quot;1292&quot;&gt;Id&lt;/span&gt;&amp;nbsp;(PK)" style="text;strokeColor=none;fillColor=none;align=left;verticalAlign=top;spacingLeft=4;spacingRight=4;overflow=hidden;rotatable=0;points=[[0,0.5],[1,0.5]];portConstraint=eastwest;whiteSpace=wrap;html=1;" vertex="1" parent="5-i4zEFZj5qR5DQi6_iw-5">
          <mxGeometry y="26" width="170" height="26" as="geometry" />
        </mxCell>
        <mxCell id="5-i4zEFZj5qR5DQi6_iw-7" value="&lt;span data-end=&quot;1330&quot; data-start=&quot;1316&quot;&gt;Usuario&lt;/span&gt; (FK )" style="text;strokeColor=none;fillColor=none;align=left;verticalAlign=top;spacingLeft=4;spacingRight=4;overflow=hidden;rotatable=0;points=[[0,0.5],[1,0.5]];portConstraint=eastwest;whiteSpace=wrap;html=1;" vertex="1" parent="5-i4zEFZj5qR5DQi6_iw-5">
          <mxGeometry y="52" width="170" height="26" as="geometry" />
        </mxCell>
        <mxCell id="67xACYd7VsZA4SW91HEJ-2" value="Descripcion" style="text;strokeColor=none;fillColor=none;align=left;verticalAlign=top;spacingLeft=4;spacingRight=4;overflow=hidden;rotatable=0;points=[[0,0.5],[1,0.5]];portConstraint=eastwest;whiteSpace=wrap;html=1;" vertex="1" parent="5-i4zEFZj5qR5DQi6_iw-5">
          <mxGeometry y="78" width="170" height="26" as="geometry" />
        </mxCell>
        <mxCell id="67xACYd7VsZA4SW91HEJ-1" value="Fecha_Inicio" style="text;strokeColor=none;fillColor=none;align=left;verticalAlign=top;spacingLeft=4;spacingRight=4;overflow=hidden;rotatable=0;points=[[0,0.5],[1,0.5]];portConstraint=eastwest;whiteSpace=wrap;html=1;" vertex="1" parent="5-i4zEFZj5qR5DQi6_iw-5">
          <mxGeometry y="104" width="170" height="26" as="geometry" />
        </mxCell>
        <mxCell id="5-i4zEFZj5qR5DQi6_iw-8" value="Fecha_Fin" style="text;strokeColor=none;fillColor=none;align=left;verticalAlign=top;spacingLeft=4;spacingRight=4;overflow=hidden;rotatable=0;points=[[0,0.5],[1,0.5]];portConstraint=eastwest;whiteSpace=wrap;html=1;" vertex="1" parent="5-i4zEFZj5qR5DQi6_iw-5">
          <mxGeometry y="130" width="170" height="26" as="geometry" />
        </mxCell>
        <mxCell id="5-i4zEFZj5qR5DQi6_iw-41" value="&lt;b&gt;Prestamos&lt;/b&gt;" style="swimlane;fontStyle=0;childLayout=stackLayout;horizontal=1;startSize=26;fillColor=none;horizontalStack=0;resizeParent=1;resizeParentMax=0;resizeLast=0;collapsible=1;marginBottom=0;whiteSpace=wrap;html=1;" vertex="1" parent="1">
          <mxGeometry x="740" y="666" width="140" height="204" as="geometry" />
        </mxCell>
        <mxCell id="5-i4zEFZj5qR5DQi6_iw-42" value="Id (PK)" style="text;strokeColor=none;fillColor=none;align=left;verticalAlign=top;spacingLeft=4;spacingRight=4;overflow=hidden;rotatable=0;points=[[0,0.5],[1,0.5]];portConstraint=eastwest;whiteSpace=wrap;html=1;" vertex="1" parent="5-i4zEFZj5qR5DQi6_iw-41">
          <mxGeometry y="26" width="140" height="26" as="geometry" />
        </mxCell>
        <mxCell id="5-i4zEFZj5qR5DQi6_iw-43" value="Usuario (FK)" style="text;strokeColor=none;fillColor=none;align=left;verticalAlign=top;spacingLeft=4;spacingRight=4;overflow=hidden;rotatable=0;points=[[0,0.5],[1,0.5]];portConstraint=eastwest;whiteSpace=wrap;html=1;" vertex="1" parent="5-i4zEFZj5qR5DQi6_iw-41">
          <mxGeometry y="52" width="140" height="26" as="geometry" />
        </mxCell>
        <mxCell id="_pcBLg60-NV8NidiyEpR-1" value="&lt;span style=&quot;color: rgb(0, 0, 0); font-family: Helvetica; font-size: 12px; font-style: normal; font-variant-ligatures: normal; font-variant-caps: normal; font-weight: 400; letter-spacing: normal; orphans: 2; text-align: left; text-indent: 0px; text-transform: none; widows: 2; word-spacing: 0px; -webkit-text-stroke-width: 0px; white-space: normal; background-color: rgb(236, 236, 236); text-decoration-thickness: initial; text-decoration-style: initial; text-decoration-color: initial; float: none; display: inline !important;&quot;&gt;Tipo_Prestamo (FK)&lt;/span&gt;" style="text;whiteSpace=wrap;html=1;" vertex="1" parent="5-i4zEFZj5qR5DQi6_iw-41">
          <mxGeometry y="78" width="140" height="22" as="geometry" />
        </mxCell>
        <mxCell id="67xACYd7VsZA4SW91HEJ-10" value="Existencia (FK)" style="text;strokeColor=none;fillColor=none;align=left;verticalAlign=top;spacingLeft=4;spacingRight=4;overflow=hidden;rotatable=0;points=[[0,0.5],[1,0.5]];portConstraint=eastwest;whiteSpace=wrap;html=1;" vertex="1" parent="5-i4zEFZj5qR5DQi6_iw-41">
          <mxGeometry y="100" width="140" height="26" as="geometry" />
        </mxCell>
        <mxCell id="67xACYd7VsZA4SW91HEJ-11" value="Fecha_Prestamo" style="text;strokeColor=none;fillColor=none;align=left;verticalAlign=top;spacingLeft=4;spacingRight=4;overflow=hidden;rotatable=0;points=[[0,0.5],[1,0.5]];portConstraint=eastwest;whiteSpace=wrap;html=1;" vertex="1" parent="5-i4zEFZj5qR5DQi6_iw-41">
          <mxGeometry y="126" width="140" height="26" as="geometry" />
        </mxCell>
        <mxCell id="67xACYd7VsZA4SW91HEJ-9" value="Fecha_Devolucion" style="text;strokeColor=none;fillColor=none;align=left;verticalAlign=top;spacingLeft=4;spacingRight=4;overflow=hidden;rotatable=0;points=[[0,0.5],[1,0.5]];portConstraint=eastwest;whiteSpace=wrap;html=1;" vertex="1" parent="5-i4zEFZj5qR5DQi6_iw-41">
          <mxGeometry y="152" width="140" height="26" as="geometry" />
        </mxCell>
        <mxCell id="5-i4zEFZj5qR5DQi6_iw-44" value="Fecha_Entrega_Real" style="text;strokeColor=none;fillColor=none;align=left;verticalAlign=top;spacingLeft=4;spacingRight=4;overflow=hidden;rotatable=0;points=[[0,0.5],[1,0.5]];portConstraint=eastwest;whiteSpace=wrap;html=1;" vertex="1" parent="5-i4zEFZj5qR5DQi6_iw-41">
          <mxGeometry y="178" width="140" height="26" as="geometry" />
        </mxCell>
        <mxCell id="5-i4zEFZj5qR5DQi6_iw-49" value="&lt;b&gt;Editoriales&lt;/b&gt;" style="swimlane;fontStyle=0;childLayout=stackLayout;horizontal=1;startSize=26;fillColor=none;horizontalStack=0;resizeParent=1;resizeParentMax=0;resizeLast=0;collapsible=1;marginBottom=0;whiteSpace=wrap;html=1;" vertex="1" parent="1">
          <mxGeometry x="1010" y="243" width="140" height="104" as="geometry" />
        </mxCell>
        <mxCell id="5-i4zEFZj5qR5DQi6_iw-50" value="&lt;span style=&quot;&quot; data-end=&quot;712&quot; data-start=&quot;696&quot;&gt;Id&lt;/span&gt;&amp;nbsp;(PK)" style="text;strokeColor=none;fillColor=none;align=left;verticalAlign=top;spacingLeft=4;spacingRight=4;overflow=hidden;rotatable=0;points=[[0,0.5],[1,0.5]];portConstraint=eastwest;whiteSpace=wrap;html=1;" vertex="1" parent="5-i4zEFZj5qR5DQi6_iw-49">
          <mxGeometry y="26" width="140" height="26" as="geometry" />
        </mxCell>
        <mxCell id="UJLe4rYA7Sr9bDtO9jyU-3" value="Nombre_Editorial" style="text;strokeColor=none;fillColor=none;align=left;verticalAlign=top;spacingLeft=4;spacingRight=4;overflow=hidden;rotatable=0;points=[[0,0.5],[1,0.5]];portConstraint=eastwest;whiteSpace=wrap;html=1;" vertex="1" parent="5-i4zEFZj5qR5DQi6_iw-49">
          <mxGeometry y="52" width="140" height="26" as="geometry" />
        </mxCell>
        <mxCell id="5-i4zEFZj5qR5DQi6_iw-51" value="Sitio_Web" style="text;strokeColor=none;fillColor=none;align=left;verticalAlign=top;spacingLeft=4;spacingRight=4;overflow=hidden;rotatable=0;points=[[0,0.5],[1,0.5]];portConstraint=eastwest;whiteSpace=wrap;html=1;" vertex="1" parent="5-i4zEFZj5qR5DQi6_iw-49">
          <mxGeometry y="78" width="140" height="26" as="geometry" />
        </mxCell>
        <mxCell id="5-i4zEFZj5qR5DQi6_iw-53" value="&lt;b&gt;Autores&lt;/b&gt;" style="swimlane;fontStyle=0;childLayout=stackLayout;horizontal=1;startSize=26;fillColor=none;horizontalStack=0;resizeParent=1;resizeParentMax=0;resizeLast=0;collapsible=1;marginBottom=0;whiteSpace=wrap;html=1;" vertex="1" parent="1">
          <mxGeometry x="260" y="237" width="140" height="104" as="geometry" />
        </mxCell>
        <mxCell id="5-i4zEFZj5qR5DQi6_iw-54" value="&lt;span style=&quot;&quot; data-end=&quot;241&quot; data-start=&quot;229&quot;&gt;Id&lt;/span&gt;&amp;nbsp;(PK)" style="text;strokeColor=none;fillColor=none;align=left;verticalAlign=top;spacingLeft=4;spacingRight=4;overflow=hidden;rotatable=0;points=[[0,0.5],[1,0.5]];portConstraint=eastwest;whiteSpace=wrap;html=1;" vertex="1" parent="5-i4zEFZj5qR5DQi6_iw-53">
          <mxGeometry y="26" width="140" height="26" as="geometry" />
        </mxCell>
        <mxCell id="5-i4zEFZj5qR5DQi6_iw-55" value="Nombre" style="text;strokeColor=none;fillColor=none;align=left;verticalAlign=top;spacingLeft=4;spacingRight=4;overflow=hidden;rotatable=0;points=[[0,0.5],[1,0.5]];portConstraint=eastwest;whiteSpace=wrap;html=1;" vertex="1" parent="5-i4zEFZj5qR5DQi6_iw-53">
          <mxGeometry y="52" width="140" height="26" as="geometry" />
        </mxCell>
        <mxCell id="5-i4zEFZj5qR5DQi6_iw-56" value="Nacionalidad" style="text;strokeColor=none;fillColor=none;align=left;verticalAlign=top;spacingLeft=4;spacingRight=4;overflow=hidden;rotatable=0;points=[[0,0.5],[1,0.5]];portConstraint=eastwest;whiteSpace=wrap;html=1;" vertex="1" parent="5-i4zEFZj5qR5DQi6_iw-53">
          <mxGeometry y="78" width="140" height="26" as="geometry" />
        </mxCell>
        <mxCell id="5-i4zEFZj5qR5DQi6_iw-57" value="&lt;b&gt;Libros_Autores&lt;/b&gt;" style="swimlane;fontStyle=0;childLayout=stackLayout;horizontal=1;startSize=26;fillColor=none;horizontalStack=0;resizeParent=1;resizeParentMax=0;resizeLast=0;collapsible=1;marginBottom=0;whiteSpace=wrap;html=1;" vertex="1" parent="1">
          <mxGeometry x="470" y="246" width="140" height="104" as="geometry" />
        </mxCell>
        <mxCell id="5-i4zEFZj5qR5DQi6_iw-58" value="&lt;span style=&quot;&quot; data-end=&quot;357&quot; data-start=&quot;339&quot;&gt;Id&lt;/span&gt;&amp;nbsp;(PK)" style="text;strokeColor=none;fillColor=none;align=left;verticalAlign=top;spacingLeft=4;spacingRight=4;overflow=hidden;rotatable=0;points=[[0,0.5],[1,0.5]];portConstraint=eastwest;whiteSpace=wrap;html=1;" vertex="1" parent="5-i4zEFZj5qR5DQi6_iw-57">
          <mxGeometry y="26" width="140" height="26" as="geometry" />
        </mxCell>
        <mxCell id="5-i4zEFZj5qR5DQi6_iw-59" value="&lt;span style=&quot;&quot; data-end=&quot;379&quot; data-start=&quot;367&quot;&gt;Libro&lt;/span&gt; (FK Libros)" style="text;strokeColor=none;fillColor=none;align=left;verticalAlign=top;spacingLeft=4;spacingRight=4;overflow=hidden;rotatable=0;points=[[0,0.5],[1,0.5]];portConstraint=eastwest;whiteSpace=wrap;html=1;" vertex="1" parent="5-i4zEFZj5qR5DQi6_iw-57">
          <mxGeometry y="52" width="140" height="26" as="geometry" />
        </mxCell>
        <mxCell id="5-i4zEFZj5qR5DQi6_iw-60" value="&lt;span style=&quot;&quot; data-end=&quot;410&quot; data-start=&quot;398&quot;&gt;Autor&lt;/span&gt; (FK Autores)" style="text;strokeColor=none;fillColor=none;align=left;verticalAlign=top;spacingLeft=4;spacingRight=4;overflow=hidden;rotatable=0;points=[[0,0.5],[1,0.5]];portConstraint=eastwest;whiteSpace=wrap;html=1;" vertex="1" parent="5-i4zEFZj5qR5DQi6_iw-57">
          <mxGeometry y="78" width="140" height="26" as="geometry" />
        </mxCell>
        <mxCell id="5-i4zEFZj5qR5DQi6_iw-62" value="&lt;b&gt;Libros&lt;/b&gt;" style="swimlane;fontStyle=0;childLayout=stackLayout;horizontal=1;startSize=26;fillColor=none;horizontalStack=0;resizeParent=1;resizeParentMax=0;resizeLast=0;collapsible=1;marginBottom=0;whiteSpace=wrap;html=1;" vertex="1" parent="1">
          <mxGeometry x="740" y="243" width="140" height="236" as="geometry" />
        </mxCell>
        <mxCell id="5-i4zEFZj5qR5DQi6_iw-63" value="Id (PK)" style="text;strokeColor=none;fillColor=none;align=left;verticalAlign=top;spacingLeft=4;spacingRight=4;overflow=hidden;rotatable=0;points=[[0,0.5],[1,0.5]];portConstraint=eastwest;whiteSpace=wrap;html=1;" vertex="1" parent="5-i4zEFZj5qR5DQi6_iw-62">
          <mxGeometry y="26" width="140" height="26" as="geometry" />
        </mxCell>
        <mxCell id="FcQKJQ1bMc4H1RKdpIVs-1" value="Editorial (FK)" style="text;strokeColor=none;fillColor=none;align=left;verticalAlign=top;spacingLeft=4;spacingRight=4;overflow=hidden;rotatable=0;points=[[0,0.5],[1,0.5]];portConstraint=eastwest;whiteSpace=wrap;html=1;" vertex="1" parent="5-i4zEFZj5qR5DQi6_iw-62">
          <mxGeometry y="52" width="140" height="26" as="geometry" />
        </mxCell>
        <mxCell id="5-i4zEFZj5qR5DQi6_iw-82" value="País (Fk)" style="text;strokeColor=none;fillColor=none;align=left;verticalAlign=top;spacingLeft=4;spacingRight=4;overflow=hidden;rotatable=0;points=[[0,0.5],[1,0.5]];portConstraint=eastwest;whiteSpace=wrap;html=1;" vertex="1" parent="5-i4zEFZj5qR5DQi6_iw-62">
          <mxGeometry y="78" width="140" height="26" as="geometry" />
        </mxCell>
        <mxCell id="67xACYd7VsZA4SW91HEJ-7" value="Tipo (FK)" style="text;strokeColor=none;fillColor=none;align=left;verticalAlign=top;spacingLeft=4;spacingRight=4;overflow=hidden;rotatable=0;points=[[0,0.5],[1,0.5]];portConstraint=eastwest;whiteSpace=wrap;html=1;" vertex="1" parent="5-i4zEFZj5qR5DQi6_iw-62">
          <mxGeometry y="104" width="140" height="26" as="geometry" />
        </mxCell>
        <mxCell id="5-i4zEFZj5qR5DQi6_iw-64" value="Isbn" style="text;strokeColor=none;fillColor=none;align=left;verticalAlign=top;spacingLeft=4;spacingRight=4;overflow=hidden;rotatable=0;points=[[0,0.5],[1,0.5]];portConstraint=eastwest;whiteSpace=wrap;html=1;" vertex="1" parent="5-i4zEFZj5qR5DQi6_iw-62">
          <mxGeometry y="130" width="140" height="28" as="geometry" />
        </mxCell>
        <mxCell id="67xACYd7VsZA4SW91HEJ-6" value="Titulo" style="text;strokeColor=none;fillColor=none;align=left;verticalAlign=top;spacingLeft=4;spacingRight=4;overflow=hidden;rotatable=0;points=[[0,0.5],[1,0.5]];portConstraint=eastwest;whiteSpace=wrap;html=1;" vertex="1" parent="5-i4zEFZj5qR5DQi6_iw-62">
          <mxGeometry y="158" width="140" height="26" as="geometry" />
        </mxCell>
        <mxCell id="MJ-HLrFRffrYiE-LSpdH-2" value="Edición" style="text;strokeColor=none;fillColor=none;align=left;verticalAlign=top;spacingLeft=4;spacingRight=4;overflow=hidden;rotatable=0;points=[[0,0.5],[1,0.5]];portConstraint=eastwest;whiteSpace=wrap;html=1;" vertex="1" parent="5-i4zEFZj5qR5DQi6_iw-62">
          <mxGeometry y="184" width="140" height="26" as="geometry" />
        </mxCell>
        <mxCell id="MJ-HLrFRffrYiE-LSpdH-3" value="Fecha_Lanzamiento" style="text;strokeColor=none;fillColor=none;align=left;verticalAlign=top;spacingLeft=4;spacingRight=4;overflow=hidden;rotatable=0;points=[[0,0.5],[1,0.5]];portConstraint=eastwest;whiteSpace=wrap;html=1;" vertex="1" parent="5-i4zEFZj5qR5DQi6_iw-62">
          <mxGeometry y="210" width="140" height="26" as="geometry" />
        </mxCell>
        <mxCell id="5-i4zEFZj5qR5DQi6_iw-88" value="&lt;b&gt;Existencias&lt;/b&gt;" style="swimlane;fontStyle=0;childLayout=stackLayout;horizontal=1;startSize=26;fillColor=none;horizontalStack=0;resizeParent=1;resizeParentMax=0;resizeLast=0;collapsible=1;marginBottom=0;whiteSpace=wrap;html=1;" vertex="1" parent="1">
          <mxGeometry x="740" y="514" width="140" height="104" as="geometry" />
        </mxCell>
        <mxCell id="5-i4zEFZj5qR5DQi6_iw-89" value="&lt;span style=&quot;&quot; data-end=&quot;1506&quot; data-start=&quot;1489&quot;&gt;Id&lt;/span&gt;&amp;nbsp;(PK)" style="text;strokeColor=none;fillColor=none;align=left;verticalAlign=top;spacingLeft=4;spacingRight=4;overflow=hidden;rotatable=0;points=[[0,0.5],[1,0.5]];portConstraint=eastwest;whiteSpace=wrap;html=1;" vertex="1" parent="5-i4zEFZj5qR5DQi6_iw-88">
          <mxGeometry y="26" width="140" height="26" as="geometry" />
        </mxCell>
        <mxCell id="5-i4zEFZj5qR5DQi6_iw-90" value="&lt;span style=&quot;&quot; data-end=&quot;1528&quot; data-start=&quot;1516&quot;&gt;Libro&lt;/span&gt; (FK )" style="text;strokeColor=none;fillColor=none;align=left;verticalAlign=top;spacingLeft=4;spacingRight=4;overflow=hidden;rotatable=0;points=[[0,0.5],[1,0.5]];portConstraint=eastwest;whiteSpace=wrap;html=1;" vertex="1" parent="5-i4zEFZj5qR5DQi6_iw-88">
          <mxGeometry y="52" width="140" height="26" as="geometry" />
        </mxCell>
        <mxCell id="_pcBLg60-NV8NidiyEpR-2" value="Ejemplares" style="text;strokeColor=none;fillColor=none;align=left;verticalAlign=top;spacingLeft=4;spacingRight=4;overflow=hidden;rotatable=0;points=[[0,0.5],[1,0.5]];portConstraint=eastwest;whiteSpace=wrap;html=1;" vertex="1" parent="5-i4zEFZj5qR5DQi6_iw-88">
          <mxGeometry y="78" width="140" height="26" as="geometry" />
        </mxCell>
        <mxCell id="5-i4zEFZj5qR5DQi6_iw-96" value="&lt;b&gt;Estados_Existencias&lt;/b&gt;" style="swimlane;fontStyle=0;childLayout=stackLayout;horizontal=1;startSize=26;fillColor=none;horizontalStack=0;resizeParent=1;resizeParentMax=0;resizeLast=0;collapsible=1;marginBottom=0;whiteSpace=wrap;html=1;" vertex="1" parent="1">
          <mxGeometry x="960" y="540" width="230" height="130" as="geometry" />
        </mxCell>
        <mxCell id="5-i4zEFZj5qR5DQi6_iw-97" value="&lt;span style=&quot;&quot; data-end=&quot;1774&quot; data-start=&quot;1750&quot;&gt;Id&lt;/span&gt;&amp;nbsp;(PK)" style="text;strokeColor=none;fillColor=none;align=left;verticalAlign=top;spacingLeft=4;spacingRight=4;overflow=hidden;rotatable=0;points=[[0,0.5],[1,0.5]];portConstraint=eastwest;whiteSpace=wrap;html=1;" vertex="1" parent="5-i4zEFZj5qR5DQi6_iw-96">
          <mxGeometry y="26" width="230" height="26" as="geometry" />
        </mxCell>
        <mxCell id="5-i4zEFZj5qR5DQi6_iw-98" value="&lt;span data-end=&quot;1801&quot; data-start=&quot;1784&quot;&gt;Existencia&lt;/span&gt; (FK)" style="text;strokeColor=none;fillColor=none;align=left;verticalAlign=top;spacingLeft=4;spacingRight=4;overflow=hidden;rotatable=0;points=[[0,0.5],[1,0.5]];portConstraint=eastwest;whiteSpace=wrap;html=1;" vertex="1" parent="5-i4zEFZj5qR5DQi6_iw-96">
          <mxGeometry y="52" width="230" height="26" as="geometry" />
        </mxCell>
        <mxCell id="5-i4zEFZj5qR5DQi6_iw-99" value="&lt;span data-end=&quot;1845&quot; data-start=&quot;1832&quot;&gt;Estado&lt;/span&gt; (FK )" style="text;strokeColor=none;fillColor=none;align=left;verticalAlign=top;spacingLeft=4;spacingRight=4;overflow=hidden;rotatable=0;points=[[0,0.5],[1,0.5]];portConstraint=eastwest;whiteSpace=wrap;html=1;" vertex="1" parent="5-i4zEFZj5qR5DQi6_iw-96">
          <mxGeometry y="78" width="230" height="26" as="geometry" />
        </mxCell>
        <mxCell id="FcQKJQ1bMc4H1RKdpIVs-52" value="Fecha_Cambio" style="text;strokeColor=none;fillColor=none;align=left;verticalAlign=top;spacingLeft=4;spacingRight=4;overflow=hidden;rotatable=0;points=[[0,0.5],[1,0.5]];portConstraint=eastwest;whiteSpace=wrap;html=1;" vertex="1" parent="5-i4zEFZj5qR5DQi6_iw-96">
          <mxGeometry y="104" width="230" height="26" as="geometry" />
        </mxCell>
        <mxCell id="FcQKJQ1bMc4H1RKdpIVs-2" style="edgeStyle=orthogonalEdgeStyle;rounded=0;orthogonalLoop=1;jettySize=auto;html=1;entryX=0;entryY=0.5;entryDx=0;entryDy=0;" edge="1" parent="1" source="5-i4zEFZj5qR5DQi6_iw-63" target="5-i4zEFZj5qR5DQi6_iw-50">
          <mxGeometry relative="1" as="geometry" />
        </mxCell>
        <mxCell id="FcQKJQ1bMc4H1RKdpIVs-3" value="&lt;b&gt;Paises&lt;/b&gt;" style="swimlane;fontStyle=0;childLayout=stackLayout;horizontal=1;startSize=26;fillColor=none;horizontalStack=0;resizeParent=1;resizeParentMax=0;resizeLast=0;collapsible=1;marginBottom=0;whiteSpace=wrap;html=1;" vertex="1" parent="1">
          <mxGeometry x="1190" y="360" width="140" height="104" as="geometry" />
        </mxCell>
        <mxCell id="FcQKJQ1bMc4H1RKdpIVs-4" value="&lt;span data-end=&quot;778&quot; data-start=&quot;767&quot;&gt;Id&lt;/span&gt;&amp;nbsp;(PK)" style="text;strokeColor=none;fillColor=none;align=left;verticalAlign=top;spacingLeft=4;spacingRight=4;overflow=hidden;rotatable=0;points=[[0,0.5],[1,0.5]];portConstraint=eastwest;whiteSpace=wrap;html=1;" vertex="1" parent="FcQKJQ1bMc4H1RKdpIVs-3">
          <mxGeometry y="26" width="140" height="26" as="geometry" />
        </mxCell>
        <mxCell id="FcQKJQ1bMc4H1RKdpIVs-5" value="Nombre_Pais" style="text;strokeColor=none;fillColor=none;align=left;verticalAlign=top;spacingLeft=4;spacingRight=4;overflow=hidden;rotatable=0;points=[[0,0.5],[1,0.5]];portConstraint=eastwest;whiteSpace=wrap;html=1;" vertex="1" parent="FcQKJQ1bMc4H1RKdpIVs-3">
          <mxGeometry y="52" width="140" height="26" as="geometry" />
        </mxCell>
        <mxCell id="UJLe4rYA7Sr9bDtO9jyU-1" value="&lt;span style=&quot;background-color: transparent; color: light-dark(rgb(0, 0, 0), rgb(255, 255, 255));&quot;&gt;Región&lt;/span&gt;&lt;span style=&quot;background-color: transparent; color: light-dark(rgb(0, 0, 0), rgb(255, 255, 255));&quot;&gt;&amp;nbsp;&lt;/span&gt;" style="text;strokeColor=none;fillColor=none;align=left;verticalAlign=top;spacingLeft=4;spacingRight=4;overflow=hidden;rotatable=0;points=[[0,0.5],[1,0.5]];portConstraint=eastwest;whiteSpace=wrap;html=1;" vertex="1" parent="FcQKJQ1bMc4H1RKdpIVs-3">
          <mxGeometry y="78" width="140" height="26" as="geometry" />
        </mxCell>
        <mxCell id="FcQKJQ1bMc4H1RKdpIVs-7" style="edgeStyle=orthogonalEdgeStyle;rounded=0;orthogonalLoop=1;jettySize=auto;html=1;" edge="1" parent="1" source="FcQKJQ1bMc4H1RKdpIVs-1" target="FcQKJQ1bMc4H1RKdpIVs-4">
          <mxGeometry relative="1" as="geometry">
            <Array as="points">
              <mxPoint x="990" y="308" />
              <mxPoint x="990" y="399" />
            </Array>
          </mxGeometry>
        </mxCell>
        <mxCell id="FcQKJQ1bMc4H1RKdpIVs-8" value="&lt;b&gt;Tipos&lt;/b&gt;" style="swimlane;fontStyle=0;childLayout=stackLayout;horizontal=1;startSize=26;fillColor=none;horizontalStack=0;resizeParent=1;resizeParentMax=0;resizeLast=0;collapsible=1;marginBottom=0;whiteSpace=wrap;html=1;" vertex="1" parent="1">
          <mxGeometry x="1010" y="450" width="140" height="78" as="geometry" />
        </mxCell>
        <mxCell id="FcQKJQ1bMc4H1RKdpIVs-9" value="&lt;span style=&quot;&quot; data-end=&quot;887&quot; data-start=&quot;876&quot;&gt;Id&lt;/span&gt;&amp;nbsp;(PK)" style="text;strokeColor=none;fillColor=none;align=left;verticalAlign=top;spacingLeft=4;spacingRight=4;overflow=hidden;rotatable=0;points=[[0,0.5],[1,0.5]];portConstraint=eastwest;whiteSpace=wrap;html=1;" vertex="1" parent="FcQKJQ1bMc4H1RKdpIVs-8">
          <mxGeometry y="26" width="140" height="26" as="geometry" />
        </mxCell>
        <mxCell id="FcQKJQ1bMc4H1RKdpIVs-10" value="Nombre_Tipo" style="text;strokeColor=none;fillColor=none;align=left;verticalAlign=top;spacingLeft=4;spacingRight=4;overflow=hidden;rotatable=0;points=[[0,0.5],[1,0.5]];portConstraint=eastwest;whiteSpace=wrap;html=1;" vertex="1" parent="FcQKJQ1bMc4H1RKdpIVs-8">
          <mxGeometry y="52" width="140" height="26" as="geometry" />
        </mxCell>
        <mxCell id="FcQKJQ1bMc4H1RKdpIVs-12" style="edgeStyle=orthogonalEdgeStyle;rounded=0;orthogonalLoop=1;jettySize=auto;html=1;entryX=0;entryY=0.5;entryDx=0;entryDy=0;" edge="1" parent="1" source="5-i4zEFZj5qR5DQi6_iw-82" target="FcQKJQ1bMc4H1RKdpIVs-9">
          <mxGeometry relative="1" as="geometry" />
        </mxCell>
        <mxCell id="FcQKJQ1bMc4H1RKdpIVs-18" value="&lt;b&gt;Libros_Temas&lt;/b&gt;" style="swimlane;fontStyle=0;childLayout=stackLayout;horizontal=1;startSize=26;fillColor=none;horizontalStack=0;resizeParent=1;resizeParentMax=0;resizeLast=0;collapsible=1;marginBottom=0;whiteSpace=wrap;html=1;" vertex="1" parent="1">
          <mxGeometry x="490" y="400" width="140" height="104" as="geometry" />
        </mxCell>
        <mxCell id="FcQKJQ1bMc4H1RKdpIVs-19" value="&lt;span style=&quot;&quot; data-end=&quot;1035&quot; data-start=&quot;1018&quot;&gt;Id&lt;/span&gt;&amp;nbsp;(PK)" style="text;strokeColor=none;fillColor=none;align=left;verticalAlign=top;spacingLeft=4;spacingRight=4;overflow=hidden;rotatable=0;points=[[0,0.5],[1,0.5]];portConstraint=eastwest;whiteSpace=wrap;html=1;" vertex="1" parent="FcQKJQ1bMc4H1RKdpIVs-18">
          <mxGeometry y="26" width="140" height="26" as="geometry" />
        </mxCell>
        <mxCell id="FcQKJQ1bMc4H1RKdpIVs-20" value="&lt;span style=&quot;&quot; data-end=&quot;1057&quot; data-start=&quot;1045&quot;&gt;Libro&lt;/span&gt; (FK)" style="text;strokeColor=none;fillColor=none;align=left;verticalAlign=top;spacingLeft=4;spacingRight=4;overflow=hidden;rotatable=0;points=[[0,0.5],[1,0.5]];portConstraint=eastwest;whiteSpace=wrap;html=1;" vertex="1" parent="FcQKJQ1bMc4H1RKdpIVs-18">
          <mxGeometry y="52" width="140" height="26" as="geometry" />
        </mxCell>
        <mxCell id="FcQKJQ1bMc4H1RKdpIVs-21" value="&lt;span style=&quot;&quot; data-end=&quot;1087&quot; data-start=&quot;1076&quot;&gt;Tema&lt;/span&gt; (FK )" style="text;strokeColor=none;fillColor=none;align=left;verticalAlign=top;spacingLeft=4;spacingRight=4;overflow=hidden;rotatable=0;points=[[0,0.5],[1,0.5]];portConstraint=eastwest;whiteSpace=wrap;html=1;" vertex="1" parent="FcQKJQ1bMc4H1RKdpIVs-18">
          <mxGeometry y="78" width="140" height="26" as="geometry" />
        </mxCell>
        <mxCell id="FcQKJQ1bMc4H1RKdpIVs-22" style="edgeStyle=orthogonalEdgeStyle;rounded=0;orthogonalLoop=1;jettySize=auto;html=1;entryX=1;entryY=0.5;entryDx=0;entryDy=0;" edge="1" parent="1" source="5-i4zEFZj5qR5DQi6_iw-63" target="5-i4zEFZj5qR5DQi6_iw-58">
          <mxGeometry relative="1" as="geometry" />
        </mxCell>
        <mxCell id="FcQKJQ1bMc4H1RKdpIVs-23" value="&lt;b&gt;Temas&lt;/b&gt;" style="swimlane;fontStyle=0;childLayout=stackLayout;horizontal=1;startSize=26;fillColor=none;horizontalStack=0;resizeParent=1;resizeParentMax=0;resizeLast=0;collapsible=1;marginBottom=0;whiteSpace=wrap;html=1;" vertex="1" parent="1">
          <mxGeometry x="260" y="390" width="140" height="104" as="geometry" />
        </mxCell>
        <mxCell id="FcQKJQ1bMc4H1RKdpIVs-24" value="&lt;span data-end=&quot;947&quot; data-start=&quot;936&quot;&gt;Id&lt;/span&gt;&amp;nbsp;(PK)" style="text;strokeColor=none;fillColor=none;align=left;verticalAlign=top;spacingLeft=4;spacingRight=4;overflow=hidden;rotatable=0;points=[[0,0.5],[1,0.5]];portConstraint=eastwest;whiteSpace=wrap;html=1;" vertex="1" parent="FcQKJQ1bMc4H1RKdpIVs-23">
          <mxGeometry y="26" width="140" height="26" as="geometry" />
        </mxCell>
        <mxCell id="UJLe4rYA7Sr9bDtO9jyU-2" value="Nombre_Tema" style="text;strokeColor=none;fillColor=none;align=left;verticalAlign=top;spacingLeft=4;spacingRight=4;overflow=hidden;rotatable=0;points=[[0,0.5],[1,0.5]];portConstraint=eastwest;whiteSpace=wrap;html=1;" vertex="1" parent="FcQKJQ1bMc4H1RKdpIVs-23">
          <mxGeometry y="52" width="140" height="26" as="geometry" />
        </mxCell>
        <mxCell id="FcQKJQ1bMc4H1RKdpIVs-25" value="Area_Conocimiento" style="text;strokeColor=none;fillColor=none;align=left;verticalAlign=top;spacingLeft=4;spacingRight=4;overflow=hidden;rotatable=0;points=[[0,0.5],[1,0.5]];portConstraint=eastwest;whiteSpace=wrap;html=1;" vertex="1" parent="FcQKJQ1bMc4H1RKdpIVs-23">
          <mxGeometry y="78" width="140" height="26" as="geometry" />
        </mxCell>
        <mxCell id="FcQKJQ1bMc4H1RKdpIVs-27" style="edgeStyle=orthogonalEdgeStyle;rounded=0;orthogonalLoop=1;jettySize=auto;html=1;entryX=1;entryY=0.5;entryDx=0;entryDy=0;" edge="1" parent="1" source="FcQKJQ1bMc4H1RKdpIVs-1" target="FcQKJQ1bMc4H1RKdpIVs-19">
          <mxGeometry relative="1" as="geometry" />
        </mxCell>
        <mxCell id="FcQKJQ1bMc4H1RKdpIVs-28" style="edgeStyle=orthogonalEdgeStyle;rounded=0;orthogonalLoop=1;jettySize=auto;html=1;entryX=1.005;entryY=-0.144;entryDx=0;entryDy=0;entryPerimeter=0;" edge="1" parent="1" source="FcQKJQ1bMc4H1RKdpIVs-19" target="FcQKJQ1bMc4H1RKdpIVs-25">
          <mxGeometry relative="1" as="geometry" />
        </mxCell>
        <mxCell id="FcQKJQ1bMc4H1RKdpIVs-29" style="edgeStyle=orthogonalEdgeStyle;rounded=0;orthogonalLoop=1;jettySize=auto;html=1;entryX=0.98;entryY=0.856;entryDx=0;entryDy=0;entryPerimeter=0;" edge="1" parent="1" source="5-i4zEFZj5qR5DQi6_iw-58" target="5-i4zEFZj5qR5DQi6_iw-54">
          <mxGeometry relative="1" as="geometry" />
        </mxCell>
        <mxCell id="FcQKJQ1bMc4H1RKdpIVs-30" style="edgeStyle=orthogonalEdgeStyle;rounded=0;orthogonalLoop=1;jettySize=auto;html=1;entryX=0;entryY=0.5;entryDx=0;entryDy=0;" edge="1" parent="1" source="5-i4zEFZj5qR5DQi6_iw-64" target="5-i4zEFZj5qR5DQi6_iw-88">
          <mxGeometry relative="1" as="geometry" />
        </mxCell>
        <mxCell id="FcQKJQ1bMc4H1RKdpIVs-31" value="&lt;b&gt;Estados&lt;/b&gt;" style="swimlane;fontStyle=0;childLayout=stackLayout;horizontal=1;startSize=26;fillColor=none;horizontalStack=0;resizeParent=1;resizeParentMax=0;resizeLast=0;collapsible=1;marginBottom=0;whiteSpace=wrap;html=1;" vertex="1" parent="1">
          <mxGeometry x="1241" y="540" width="140" height="78" as="geometry" />
        </mxCell>
        <mxCell id="FcQKJQ1bMc4H1RKdpIVs-32" value="&lt;span style=&quot;&quot; data-end=&quot;1637&quot; data-start=&quot;1624&quot;&gt;Id&lt;/span&gt;&amp;nbsp;(PK)" style="text;strokeColor=none;fillColor=none;align=left;verticalAlign=top;spacingLeft=4;spacingRight=4;overflow=hidden;rotatable=0;points=[[0,0.5],[1,0.5]];portConstraint=eastwest;whiteSpace=wrap;html=1;" vertex="1" parent="FcQKJQ1bMc4H1RKdpIVs-31">
          <mxGeometry y="26" width="140" height="26" as="geometry" />
        </mxCell>
        <mxCell id="FcQKJQ1bMc4H1RKdpIVs-33" value="Nombre_Estado" style="text;strokeColor=none;fillColor=none;align=left;verticalAlign=top;spacingLeft=4;spacingRight=4;overflow=hidden;rotatable=0;points=[[0,0.5],[1,0.5]];portConstraint=eastwest;whiteSpace=wrap;html=1;" vertex="1" parent="FcQKJQ1bMc4H1RKdpIVs-31">
          <mxGeometry y="52" width="140" height="26" as="geometry" />
        </mxCell>
        <mxCell id="FcQKJQ1bMc4H1RKdpIVs-35" style="edgeStyle=orthogonalEdgeStyle;rounded=0;orthogonalLoop=1;jettySize=auto;html=1;entryX=0;entryY=0.5;entryDx=0;entryDy=0;" edge="1" parent="1" source="5-i4zEFZj5qR5DQi6_iw-97" target="FcQKJQ1bMc4H1RKdpIVs-32">
          <mxGeometry relative="1" as="geometry" />
        </mxCell>
        <mxCell id="FcQKJQ1bMc4H1RKdpIVs-37" style="edgeStyle=orthogonalEdgeStyle;rounded=0;orthogonalLoop=1;jettySize=auto;html=1;exitX=1;exitY=0.5;exitDx=0;exitDy=0;entryX=0;entryY=0.5;entryDx=0;entryDy=0;" edge="1" parent="1" source="5-i4zEFZj5qR5DQi6_iw-89" target="5-i4zEFZj5qR5DQi6_iw-97">
          <mxGeometry relative="1" as="geometry" />
        </mxCell>
        <mxCell id="FcQKJQ1bMc4H1RKdpIVs-38" style="edgeStyle=orthogonalEdgeStyle;rounded=0;orthogonalLoop=1;jettySize=auto;html=1;exitX=1;exitY=0.5;exitDx=0;exitDy=0;entryX=1;entryY=0.5;entryDx=0;entryDy=0;" edge="1" parent="1" source="5-i4zEFZj5qR5DQi6_iw-90" target="5-i4zEFZj5qR5DQi6_iw-42">
          <mxGeometry relative="1" as="geometry" />
        </mxCell>
        <mxCell id="FcQKJQ1bMc4H1RKdpIVs-39" style="edgeStyle=orthogonalEdgeStyle;rounded=0;orthogonalLoop=1;jettySize=auto;html=1;exitX=0;exitY=0.5;exitDx=0;exitDy=0;entryX=1;entryY=0.5;entryDx=0;entryDy=0;" edge="1" parent="1" source="5-i4zEFZj5qR5DQi6_iw-42" target="5-i4zEFZj5qR5DQi6_iw-2">
          <mxGeometry relative="1" as="geometry" />
        </mxCell>
        <mxCell id="FcQKJQ1bMc4H1RKdpIVs-40" value="&lt;b&gt;Tipos_Prestamos&lt;/b&gt;" style="swimlane;fontStyle=0;childLayout=stackLayout;horizontal=1;startSize=26;fillColor=none;horizontalStack=0;resizeParent=1;resizeParentMax=0;resizeLast=0;collapsible=1;marginBottom=0;whiteSpace=wrap;html=1;" vertex="1" parent="1">
          <mxGeometry x="960" y="692" width="140" height="78" as="geometry" />
        </mxCell>
        <mxCell id="FcQKJQ1bMc4H1RKdpIVs-41" value="&lt;span data-end=&quot;2183&quot; data-start=&quot;2163&quot;&gt;Id&lt;/span&gt;&amp;nbsp;(PK)" style="text;strokeColor=none;fillColor=none;align=left;verticalAlign=top;spacingLeft=4;spacingRight=4;overflow=hidden;rotatable=0;points=[[0,0.5],[1,0.5]];portConstraint=eastwest;whiteSpace=wrap;html=1;" vertex="1" parent="FcQKJQ1bMc4H1RKdpIVs-40">
          <mxGeometry y="26" width="140" height="26" as="geometry" />
        </mxCell>
        <mxCell id="FcQKJQ1bMc4H1RKdpIVs-42" value="Descripcion" style="text;strokeColor=none;fillColor=none;align=left;verticalAlign=top;spacingLeft=4;spacingRight=4;overflow=hidden;rotatable=0;points=[[0,0.5],[1,0.5]];portConstraint=eastwest;whiteSpace=wrap;html=1;" vertex="1" parent="FcQKJQ1bMc4H1RKdpIVs-40">
          <mxGeometry y="52" width="140" height="26" as="geometry" />
        </mxCell>
        <mxCell id="FcQKJQ1bMc4H1RKdpIVs-44" style="edgeStyle=orthogonalEdgeStyle;rounded=0;orthogonalLoop=1;jettySize=auto;html=1;exitX=1;exitY=0.5;exitDx=0;exitDy=0;entryX=0;entryY=0.5;entryDx=0;entryDy=0;" edge="1" parent="1" source="5-i4zEFZj5qR5DQi6_iw-43" target="FcQKJQ1bMc4H1RKdpIVs-41">
          <mxGeometry relative="1" as="geometry" />
        </mxCell>
        <mxCell id="FcQKJQ1bMc4H1RKdpIVs-45" style="edgeStyle=orthogonalEdgeStyle;rounded=0;orthogonalLoop=1;jettySize=auto;html=1;entryX=1;entryY=0.5;entryDx=0;entryDy=0;" edge="1" parent="1" source="5-i4zEFZj5qR5DQi6_iw-2" target="5-i4zEFZj5qR5DQi6_iw-5">
          <mxGeometry relative="1" as="geometry" />
        </mxCell>
      </root>
    </mxGraphModel>
  </diagram>
  <diagram name="Copia de Página-1" id="iggI7F-RAV9DL3rnZX1I">
    <mxGraphModel grid="1" page="1" gridSize="10" guides="1" tooltips="1" connect="1" arrows="1" fold="1" pageScale="1" pageWidth="827" pageHeight="1169" math="0" shadow="0">
      <root>
        <mxCell id="oy5_rFtbNNdpvlD1gyAk-0" />
        <mxCell id="oy5_rFtbNNdpvlD1gyAk-1" parent="oy5_rFtbNNdpvlD1gyAk-0" />
        <mxCell id="oy5_rFtbNNdpvlD1gyAk-2" value="&lt;b&gt;Usuarios&lt;/b&gt;" style="swimlane;fontStyle=0;childLayout=stackLayout;horizontal=1;startSize=26;fillColor=none;horizontalStack=0;resizeParent=1;resizeParentMax=0;resizeLast=0;collapsible=1;marginBottom=0;whiteSpace=wrap;html=1;" vertex="1" parent="oy5_rFtbNNdpvlD1gyAk-1">
          <mxGeometry x="470" y="610" width="140" height="196" as="geometry" />
        </mxCell>
        <mxCell id="oy5_rFtbNNdpvlD1gyAk-3" value="+ field: type" style="text;strokeColor=none;fillColor=none;align=left;verticalAlign=top;spacingLeft=4;spacingRight=4;overflow=hidden;rotatable=0;points=[[0,0.5],[1,0.5]];portConstraint=eastwest;whiteSpace=wrap;html=1;" vertex="1" parent="oy5_rFtbNNdpvlD1gyAk-2">
          <mxGeometry y="26" width="140" height="26" as="geometry" />
        </mxCell>
        <mxCell id="oy5_rFtbNNdpvlD1gyAk-4" value="+ field: type" style="text;strokeColor=none;fillColor=none;align=left;verticalAlign=top;spacingLeft=4;spacingRight=4;overflow=hidden;rotatable=0;points=[[0,0.5],[1,0.5]];portConstraint=eastwest;whiteSpace=wrap;html=1;" vertex="1" parent="oy5_rFtbNNdpvlD1gyAk-2">
          <mxGeometry y="52" width="140" height="26" as="geometry" />
        </mxCell>
        <mxCell id="oy5_rFtbNNdpvlD1gyAk-5" value="+ field: type" style="text;strokeColor=none;fillColor=none;align=left;verticalAlign=top;spacingLeft=4;spacingRight=4;overflow=hidden;rotatable=0;points=[[0,0.5],[1,0.5]];portConstraint=eastwest;whiteSpace=wrap;html=1;" vertex="1" parent="oy5_rFtbNNdpvlD1gyAk-2">
          <mxGeometry y="78" width="140" height="26" as="geometry" />
        </mxCell>
        <mxCell id="oy5_rFtbNNdpvlD1gyAk-6" value="+ field: type" style="text;strokeColor=none;fillColor=none;align=left;verticalAlign=top;spacingLeft=4;spacingRight=4;overflow=hidden;rotatable=0;points=[[0,0.5],[1,0.5]];portConstraint=eastwest;whiteSpace=wrap;html=1;" vertex="1" parent="oy5_rFtbNNdpvlD1gyAk-2">
          <mxGeometry y="104" width="140" height="92" as="geometry" />
        </mxCell>
        <mxCell id="oy5_rFtbNNdpvlD1gyAk-7" value="&lt;b&gt;Sanciones&lt;/b&gt;" style="swimlane;fontStyle=0;childLayout=stackLayout;horizontal=1;startSize=26;fillColor=none;horizontalStack=0;resizeParent=1;resizeParentMax=0;resizeLast=0;collapsible=1;marginBottom=0;whiteSpace=wrap;html=1;" vertex="1" parent="oy5_rFtbNNdpvlD1gyAk-1">
          <mxGeometry x="270" y="646" width="140" height="104" as="geometry" />
        </mxCell>
        <mxCell id="oy5_rFtbNNdpvlD1gyAk-8" value="+ field: type" style="text;strokeColor=none;fillColor=none;align=left;verticalAlign=top;spacingLeft=4;spacingRight=4;overflow=hidden;rotatable=0;points=[[0,0.5],[1,0.5]];portConstraint=eastwest;whiteSpace=wrap;html=1;" vertex="1" parent="oy5_rFtbNNdpvlD1gyAk-7">
          <mxGeometry y="26" width="140" height="26" as="geometry" />
        </mxCell>
        <mxCell id="oy5_rFtbNNdpvlD1gyAk-9" value="+ field: type" style="text;strokeColor=none;fillColor=none;align=left;verticalAlign=top;spacingLeft=4;spacingRight=4;overflow=hidden;rotatable=0;points=[[0,0.5],[1,0.5]];portConstraint=eastwest;whiteSpace=wrap;html=1;" vertex="1" parent="oy5_rFtbNNdpvlD1gyAk-7">
          <mxGeometry y="52" width="140" height="26" as="geometry" />
        </mxCell>
        <mxCell id="oy5_rFtbNNdpvlD1gyAk-10" value="+ field: type" style="text;strokeColor=none;fillColor=none;align=left;verticalAlign=top;spacingLeft=4;spacingRight=4;overflow=hidden;rotatable=0;points=[[0,0.5],[1,0.5]];portConstraint=eastwest;whiteSpace=wrap;html=1;" vertex="1" parent="oy5_rFtbNNdpvlD1gyAk-7">
          <mxGeometry y="78" width="140" height="26" as="geometry" />
        </mxCell>
        <mxCell id="oy5_rFtbNNdpvlD1gyAk-11" value="&lt;b&gt;Prestamos&lt;/b&gt;" style="swimlane;fontStyle=0;childLayout=stackLayout;horizontal=1;startSize=26;fillColor=none;horizontalStack=0;resizeParent=1;resizeParentMax=0;resizeLast=0;collapsible=1;marginBottom=0;whiteSpace=wrap;html=1;" vertex="1" parent="oy5_rFtbNNdpvlD1gyAk-1">
          <mxGeometry x="740" y="690" width="140" height="104" as="geometry" />
        </mxCell>
        <mxCell id="oy5_rFtbNNdpvlD1gyAk-12" value="+ field: type" style="text;strokeColor=none;fillColor=none;align=left;verticalAlign=top;spacingLeft=4;spacingRight=4;overflow=hidden;rotatable=0;points=[[0,0.5],[1,0.5]];portConstraint=eastwest;whiteSpace=wrap;html=1;" vertex="1" parent="oy5_rFtbNNdpvlD1gyAk-11">
          <mxGeometry y="26" width="140" height="26" as="geometry" />
        </mxCell>
        <mxCell id="oy5_rFtbNNdpvlD1gyAk-13" value="+ field: type" style="text;strokeColor=none;fillColor=none;align=left;verticalAlign=top;spacingLeft=4;spacingRight=4;overflow=hidden;rotatable=0;points=[[0,0.5],[1,0.5]];portConstraint=eastwest;whiteSpace=wrap;html=1;" vertex="1" parent="oy5_rFtbNNdpvlD1gyAk-11">
          <mxGeometry y="52" width="140" height="26" as="geometry" />
        </mxCell>
        <mxCell id="oy5_rFtbNNdpvlD1gyAk-14" value="+ field: type" style="text;strokeColor=none;fillColor=none;align=left;verticalAlign=top;spacingLeft=4;spacingRight=4;overflow=hidden;rotatable=0;points=[[0,0.5],[1,0.5]];portConstraint=eastwest;whiteSpace=wrap;html=1;" vertex="1" parent="oy5_rFtbNNdpvlD1gyAk-11">
          <mxGeometry y="78" width="140" height="26" as="geometry" />
        </mxCell>
        <mxCell id="oy5_rFtbNNdpvlD1gyAk-15" value="&lt;b&gt;Editoriales&lt;/b&gt;" style="swimlane;fontStyle=0;childLayout=stackLayout;horizontal=1;startSize=26;fillColor=none;horizontalStack=0;resizeParent=1;resizeParentMax=0;resizeLast=0;collapsible=1;marginBottom=0;whiteSpace=wrap;html=1;" vertex="1" parent="oy5_rFtbNNdpvlD1gyAk-1">
          <mxGeometry x="1010" y="250" width="140" height="78" as="geometry" />
        </mxCell>
        <mxCell id="oy5_rFtbNNdpvlD1gyAk-16" value="&lt;span style=&quot;&quot; data-end=&quot;712&quot; data-start=&quot;696&quot;&gt;id_editorial&lt;/span&gt; (PK)" style="text;strokeColor=none;fillColor=none;align=left;verticalAlign=top;spacingLeft=4;spacingRight=4;overflow=hidden;rotatable=0;points=[[0,0.5],[1,0.5]];portConstraint=eastwest;whiteSpace=wrap;html=1;" vertex="1" parent="oy5_rFtbNNdpvlD1gyAk-15">
          <mxGeometry y="26" width="140" height="26" as="geometry" />
        </mxCell>
        <mxCell id="oy5_rFtbNNdpvlD1gyAk-17" value="Nombre_editorial" style="text;strokeColor=none;fillColor=none;align=left;verticalAlign=top;spacingLeft=4;spacingRight=4;overflow=hidden;rotatable=0;points=[[0,0.5],[1,0.5]];portConstraint=eastwest;whiteSpace=wrap;html=1;" vertex="1" parent="oy5_rFtbNNdpvlD1gyAk-15">
          <mxGeometry y="52" width="140" height="26" as="geometry" />
        </mxCell>
        <mxCell id="oy5_rFtbNNdpvlD1gyAk-18" value="&lt;b&gt;Autores&lt;/b&gt;" style="swimlane;fontStyle=0;childLayout=stackLayout;horizontal=1;startSize=26;fillColor=none;horizontalStack=0;resizeParent=1;resizeParentMax=0;resizeLast=0;collapsible=1;marginBottom=0;whiteSpace=wrap;html=1;" vertex="1" parent="oy5_rFtbNNdpvlD1gyAk-1">
          <mxGeometry x="270" y="300" width="140" height="104" as="geometry" />
        </mxCell>
        <mxCell id="oy5_rFtbNNdpvlD1gyAk-19" value="&lt;span style=&quot;&quot; data-end=&quot;241&quot; data-start=&quot;229&quot;&gt;id_autor&lt;/span&gt; (PK)" style="text;strokeColor=none;fillColor=none;align=left;verticalAlign=top;spacingLeft=4;spacingRight=4;overflow=hidden;rotatable=0;points=[[0,0.5],[1,0.5]];portConstraint=eastwest;whiteSpace=wrap;html=1;" vertex="1" parent="oy5_rFtbNNdpvlD1gyAk-18">
          <mxGeometry y="26" width="140" height="26" as="geometry" />
        </mxCell>
        <mxCell id="oy5_rFtbNNdpvlD1gyAk-20" value="Nombre" style="text;strokeColor=none;fillColor=none;align=left;verticalAlign=top;spacingLeft=4;spacingRight=4;overflow=hidden;rotatable=0;points=[[0,0.5],[1,0.5]];portConstraint=eastwest;whiteSpace=wrap;html=1;" vertex="1" parent="oy5_rFtbNNdpvlD1gyAk-18">
          <mxGeometry y="52" width="140" height="26" as="geometry" />
        </mxCell>
        <mxCell id="oy5_rFtbNNdpvlD1gyAk-21" value="Nacionalidad" style="text;strokeColor=none;fillColor=none;align=left;verticalAlign=top;spacingLeft=4;spacingRight=4;overflow=hidden;rotatable=0;points=[[0,0.5],[1,0.5]];portConstraint=eastwest;whiteSpace=wrap;html=1;" vertex="1" parent="oy5_rFtbNNdpvlD1gyAk-18">
          <mxGeometry y="78" width="140" height="26" as="geometry" />
        </mxCell>
        <mxCell id="oy5_rFtbNNdpvlD1gyAk-22" value="&lt;b&gt;Libros_Autores&lt;/b&gt;" style="swimlane;fontStyle=0;childLayout=stackLayout;horizontal=1;startSize=26;fillColor=none;horizontalStack=0;resizeParent=1;resizeParentMax=0;resizeLast=0;collapsible=1;marginBottom=0;whiteSpace=wrap;html=1;" vertex="1" parent="oy5_rFtbNNdpvlD1gyAk-1">
          <mxGeometry x="480" y="309" width="140" height="104" as="geometry" />
        </mxCell>
        <mxCell id="oy5_rFtbNNdpvlD1gyAk-23" value="&lt;span style=&quot;&quot; data-end=&quot;357&quot; data-start=&quot;339&quot;&gt;id_libro_autor&lt;/span&gt; (PK)" style="text;strokeColor=none;fillColor=none;align=left;verticalAlign=top;spacingLeft=4;spacingRight=4;overflow=hidden;rotatable=0;points=[[0,0.5],[1,0.5]];portConstraint=eastwest;whiteSpace=wrap;html=1;" vertex="1" parent="oy5_rFtbNNdpvlD1gyAk-22">
          <mxGeometry y="26" width="140" height="26" as="geometry" />
        </mxCell>
        <mxCell id="oy5_rFtbNNdpvlD1gyAk-24" value="&lt;span style=&quot;&quot; data-end=&quot;379&quot; data-start=&quot;367&quot;&gt;id_libro&lt;/span&gt; (FK Libros)" style="text;strokeColor=none;fillColor=none;align=left;verticalAlign=top;spacingLeft=4;spacingRight=4;overflow=hidden;rotatable=0;points=[[0,0.5],[1,0.5]];portConstraint=eastwest;whiteSpace=wrap;html=1;" vertex="1" parent="oy5_rFtbNNdpvlD1gyAk-22">
          <mxGeometry y="52" width="140" height="26" as="geometry" />
        </mxCell>
        <mxCell id="oy5_rFtbNNdpvlD1gyAk-25" value="&lt;span style=&quot;&quot; data-end=&quot;410&quot; data-start=&quot;398&quot;&gt;id_autor&lt;/span&gt; (FK Autores)" style="text;strokeColor=none;fillColor=none;align=left;verticalAlign=top;spacingLeft=4;spacingRight=4;overflow=hidden;rotatable=0;points=[[0,0.5],[1,0.5]];portConstraint=eastwest;whiteSpace=wrap;html=1;" vertex="1" parent="oy5_rFtbNNdpvlD1gyAk-22">
          <mxGeometry y="78" width="140" height="26" as="geometry" />
        </mxCell>
        <mxCell id="oy5_rFtbNNdpvlD1gyAk-26" value="&lt;b&gt;Libros&lt;/b&gt;" style="swimlane;fontStyle=0;childLayout=stackLayout;horizontal=1;startSize=26;fillColor=none;horizontalStack=0;resizeParent=1;resizeParentMax=0;resizeLast=0;collapsible=1;marginBottom=0;whiteSpace=wrap;html=1;" vertex="1" parent="oy5_rFtbNNdpvlD1gyAk-1">
          <mxGeometry x="740" y="309" width="140" height="206" as="geometry" />
        </mxCell>
        <mxCell id="oy5_rFtbNNdpvlD1gyAk-27" value="+ field: type" style="text;strokeColor=none;fillColor=none;align=left;verticalAlign=top;spacingLeft=4;spacingRight=4;overflow=hidden;rotatable=0;points=[[0,0.5],[1,0.5]];portConstraint=eastwest;whiteSpace=wrap;html=1;" vertex="1" parent="oy5_rFtbNNdpvlD1gyAk-26">
          <mxGeometry y="26" width="140" height="26" as="geometry" />
        </mxCell>
        <mxCell id="oy5_rFtbNNdpvlD1gyAk-28" value="+ field: type" style="text;strokeColor=none;fillColor=none;align=left;verticalAlign=top;spacingLeft=4;spacingRight=4;overflow=hidden;rotatable=0;points=[[0,0.5],[1,0.5]];portConstraint=eastwest;whiteSpace=wrap;html=1;" vertex="1" parent="oy5_rFtbNNdpvlD1gyAk-26">
          <mxGeometry y="52" width="140" height="26" as="geometry" />
        </mxCell>
        <mxCell id="oy5_rFtbNNdpvlD1gyAk-29" value="+ field: type" style="text;strokeColor=none;fillColor=none;align=left;verticalAlign=top;spacingLeft=4;spacingRight=4;overflow=hidden;rotatable=0;points=[[0,0.5],[1,0.5]];portConstraint=eastwest;whiteSpace=wrap;html=1;" vertex="1" parent="oy5_rFtbNNdpvlD1gyAk-26">
          <mxGeometry y="78" width="140" height="26" as="geometry" />
        </mxCell>
        <mxCell id="oy5_rFtbNNdpvlD1gyAk-30" value="+ field: type" style="text;strokeColor=none;fillColor=none;align=left;verticalAlign=top;spacingLeft=4;spacingRight=4;overflow=hidden;rotatable=0;points=[[0,0.5],[1,0.5]];portConstraint=eastwest;whiteSpace=wrap;html=1;" vertex="1" parent="oy5_rFtbNNdpvlD1gyAk-26">
          <mxGeometry y="104" width="140" height="26" as="geometry" />
        </mxCell>
        <mxCell id="oy5_rFtbNNdpvlD1gyAk-31" value="+ field: type" style="text;strokeColor=none;fillColor=none;align=left;verticalAlign=top;spacingLeft=4;spacingRight=4;overflow=hidden;rotatable=0;points=[[0,0.5],[1,0.5]];portConstraint=eastwest;whiteSpace=wrap;html=1;" vertex="1" parent="oy5_rFtbNNdpvlD1gyAk-26">
          <mxGeometry y="130" width="140" height="76" as="geometry" />
        </mxCell>
        <mxCell id="oy5_rFtbNNdpvlD1gyAk-32" value="&lt;b&gt;Libros_Existencias&lt;/b&gt;" style="swimlane;fontStyle=0;childLayout=stackLayout;horizontal=1;startSize=26;fillColor=none;horizontalStack=0;resizeParent=1;resizeParentMax=0;resizeLast=0;collapsible=1;marginBottom=0;whiteSpace=wrap;html=1;" vertex="1" parent="oy5_rFtbNNdpvlD1gyAk-1">
          <mxGeometry x="740" y="564" width="140" height="78" as="geometry" />
        </mxCell>
        <mxCell id="oy5_rFtbNNdpvlD1gyAk-33" value="&lt;span style=&quot;&quot; data-end=&quot;1506&quot; data-start=&quot;1489&quot;&gt;id_existencia&lt;/span&gt; (PK)" style="text;strokeColor=none;fillColor=none;align=left;verticalAlign=top;spacingLeft=4;spacingRight=4;overflow=hidden;rotatable=0;points=[[0,0.5],[1,0.5]];portConstraint=eastwest;whiteSpace=wrap;html=1;" vertex="1" parent="oy5_rFtbNNdpvlD1gyAk-32">
          <mxGeometry y="26" width="140" height="26" as="geometry" />
        </mxCell>
        <mxCell id="oy5_rFtbNNdpvlD1gyAk-34" value="&lt;span style=&quot;&quot; data-end=&quot;1528&quot; data-start=&quot;1516&quot;&gt;id_libro&lt;/span&gt; (FK Libros)" style="text;strokeColor=none;fillColor=none;align=left;verticalAlign=top;spacingLeft=4;spacingRight=4;overflow=hidden;rotatable=0;points=[[0,0.5],[1,0.5]];portConstraint=eastwest;whiteSpace=wrap;html=1;" vertex="1" parent="oy5_rFtbNNdpvlD1gyAk-32">
          <mxGeometry y="52" width="140" height="26" as="geometry" />
        </mxCell>
        <mxCell id="oy5_rFtbNNdpvlD1gyAk-35" value="&lt;b&gt;Estados_Existencias&lt;/b&gt;" style="swimlane;fontStyle=0;childLayout=stackLayout;horizontal=1;startSize=26;fillColor=none;horizontalStack=0;resizeParent=1;resizeParentMax=0;resizeLast=0;collapsible=1;marginBottom=0;whiteSpace=wrap;html=1;" vertex="1" parent="oy5_rFtbNNdpvlD1gyAk-1">
          <mxGeometry x="960" y="564" width="230" height="130" as="geometry" />
        </mxCell>
        <mxCell id="oy5_rFtbNNdpvlD1gyAk-36" value="&lt;span style=&quot;&quot; data-end=&quot;1774&quot; data-start=&quot;1750&quot;&gt;id_estado_existencia&lt;/span&gt; (PK)" style="text;strokeColor=none;fillColor=none;align=left;verticalAlign=top;spacingLeft=4;spacingRight=4;overflow=hidden;rotatable=0;points=[[0,0.5],[1,0.5]];portConstraint=eastwest;whiteSpace=wrap;html=1;" vertex="1" parent="oy5_rFtbNNdpvlD1gyAk-35">
          <mxGeometry y="26" width="230" height="26" as="geometry" />
        </mxCell>
        <mxCell id="oy5_rFtbNNdpvlD1gyAk-37" value="&lt;span data-end=&quot;1801&quot; data-start=&quot;1784&quot;&gt;id_existencia&lt;/span&gt; (FK Libros_Existencias)" style="text;strokeColor=none;fillColor=none;align=left;verticalAlign=top;spacingLeft=4;spacingRight=4;overflow=hidden;rotatable=0;points=[[0,0.5],[1,0.5]];portConstraint=eastwest;whiteSpace=wrap;html=1;" vertex="1" parent="oy5_rFtbNNdpvlD1gyAk-35">
          <mxGeometry y="52" width="230" height="26" as="geometry" />
        </mxCell>
        <mxCell id="oy5_rFtbNNdpvlD1gyAk-38" value="&lt;span data-end=&quot;1845&quot; data-start=&quot;1832&quot;&gt;id_estado&lt;/span&gt; (FK Estados)" style="text;strokeColor=none;fillColor=none;align=left;verticalAlign=top;spacingLeft=4;spacingRight=4;overflow=hidden;rotatable=0;points=[[0,0.5],[1,0.5]];portConstraint=eastwest;whiteSpace=wrap;html=1;" vertex="1" parent="oy5_rFtbNNdpvlD1gyAk-35">
          <mxGeometry y="78" width="230" height="26" as="geometry" />
        </mxCell>
        <mxCell id="oy5_rFtbNNdpvlD1gyAk-39" value="Fecha_cambio" style="text;strokeColor=none;fillColor=none;align=left;verticalAlign=top;spacingLeft=4;spacingRight=4;overflow=hidden;rotatable=0;points=[[0,0.5],[1,0.5]];portConstraint=eastwest;whiteSpace=wrap;html=1;" vertex="1" parent="oy5_rFtbNNdpvlD1gyAk-35">
          <mxGeometry y="104" width="230" height="26" as="geometry" />
        </mxCell>
        <mxCell id="oy5_rFtbNNdpvlD1gyAk-40" style="edgeStyle=orthogonalEdgeStyle;rounded=0;orthogonalLoop=1;jettySize=auto;html=1;entryX=0;entryY=0.5;entryDx=0;entryDy=0;" edge="1" parent="oy5_rFtbNNdpvlD1gyAk-1" source="oy5_rFtbNNdpvlD1gyAk-27" target="oy5_rFtbNNdpvlD1gyAk-16">
          <mxGeometry relative="1" as="geometry" />
        </mxCell>
        <mxCell id="oy5_rFtbNNdpvlD1gyAk-41" value="&lt;b&gt;Paises&lt;/b&gt;" style="swimlane;fontStyle=0;childLayout=stackLayout;horizontal=1;startSize=26;fillColor=none;horizontalStack=0;resizeParent=1;resizeParentMax=0;resizeLast=0;collapsible=1;marginBottom=0;whiteSpace=wrap;html=1;" vertex="1" parent="oy5_rFtbNNdpvlD1gyAk-1">
          <mxGeometry x="1010" y="350" width="140" height="78" as="geometry" />
        </mxCell>
        <mxCell id="oy5_rFtbNNdpvlD1gyAk-42" value="&lt;span data-end=&quot;778&quot; data-start=&quot;767&quot;&gt;id_pais&lt;/span&gt; (PK)" style="text;strokeColor=none;fillColor=none;align=left;verticalAlign=top;spacingLeft=4;spacingRight=4;overflow=hidden;rotatable=0;points=[[0,0.5],[1,0.5]];portConstraint=eastwest;whiteSpace=wrap;html=1;" vertex="1" parent="oy5_rFtbNNdpvlD1gyAk-41">
          <mxGeometry y="26" width="140" height="26" as="geometry" />
        </mxCell>
        <mxCell id="oy5_rFtbNNdpvlD1gyAk-43" value="Nombre_pais" style="text;strokeColor=none;fillColor=none;align=left;verticalAlign=top;spacingLeft=4;spacingRight=4;overflow=hidden;rotatable=0;points=[[0,0.5],[1,0.5]];portConstraint=eastwest;whiteSpace=wrap;html=1;" vertex="1" parent="oy5_rFtbNNdpvlD1gyAk-41">
          <mxGeometry y="52" width="140" height="26" as="geometry" />
        </mxCell>
        <mxCell id="oy5_rFtbNNdpvlD1gyAk-44" style="edgeStyle=orthogonalEdgeStyle;rounded=0;orthogonalLoop=1;jettySize=auto;html=1;" edge="1" parent="oy5_rFtbNNdpvlD1gyAk-1" source="oy5_rFtbNNdpvlD1gyAk-28" target="oy5_rFtbNNdpvlD1gyAk-42">
          <mxGeometry relative="1" as="geometry" />
        </mxCell>
        <mxCell id="oy5_rFtbNNdpvlD1gyAk-45" value="&lt;b&gt;Tipos&lt;/b&gt;" style="swimlane;fontStyle=0;childLayout=stackLayout;horizontal=1;startSize=26;fillColor=none;horizontalStack=0;resizeParent=1;resizeParentMax=0;resizeLast=0;collapsible=1;marginBottom=0;whiteSpace=wrap;html=1;" vertex="1" parent="oy5_rFtbNNdpvlD1gyAk-1">
          <mxGeometry x="1010" y="450" width="140" height="78" as="geometry" />
        </mxCell>
        <mxCell id="oy5_rFtbNNdpvlD1gyAk-46" value="&lt;span style=&quot;&quot; data-end=&quot;887&quot; data-start=&quot;876&quot;&gt;id_tipo&lt;/span&gt; (PK)" style="text;strokeColor=none;fillColor=none;align=left;verticalAlign=top;spacingLeft=4;spacingRight=4;overflow=hidden;rotatable=0;points=[[0,0.5],[1,0.5]];portConstraint=eastwest;whiteSpace=wrap;html=1;" vertex="1" parent="oy5_rFtbNNdpvlD1gyAk-45">
          <mxGeometry y="26" width="140" height="26" as="geometry" />
        </mxCell>
        <mxCell id="oy5_rFtbNNdpvlD1gyAk-47" value="Nombre_tipo" style="text;strokeColor=none;fillColor=none;align=left;verticalAlign=top;spacingLeft=4;spacingRight=4;overflow=hidden;rotatable=0;points=[[0,0.5],[1,0.5]];portConstraint=eastwest;whiteSpace=wrap;html=1;" vertex="1" parent="oy5_rFtbNNdpvlD1gyAk-45">
          <mxGeometry y="52" width="140" height="26" as="geometry" />
        </mxCell>
        <mxCell id="oy5_rFtbNNdpvlD1gyAk-48" style="edgeStyle=orthogonalEdgeStyle;rounded=0;orthogonalLoop=1;jettySize=auto;html=1;entryX=0;entryY=0.5;entryDx=0;entryDy=0;" edge="1" parent="oy5_rFtbNNdpvlD1gyAk-1" source="oy5_rFtbNNdpvlD1gyAk-30" target="oy5_rFtbNNdpvlD1gyAk-46">
          <mxGeometry relative="1" as="geometry" />
        </mxCell>
        <mxCell id="oy5_rFtbNNdpvlD1gyAk-49" value="&lt;b&gt;Libros_Temas&lt;/b&gt;" style="swimlane;fontStyle=0;childLayout=stackLayout;horizontal=1;startSize=26;fillColor=none;horizontalStack=0;resizeParent=1;resizeParentMax=0;resizeLast=0;collapsible=1;marginBottom=0;whiteSpace=wrap;html=1;" vertex="1" parent="oy5_rFtbNNdpvlD1gyAk-1">
          <mxGeometry x="490" y="460" width="140" height="104" as="geometry" />
        </mxCell>
        <mxCell id="oy5_rFtbNNdpvlD1gyAk-50" value="&lt;span style=&quot;&quot; data-end=&quot;1035&quot; data-start=&quot;1018&quot;&gt;id_libro_tema&lt;/span&gt; (PK)" style="text;strokeColor=none;fillColor=none;align=left;verticalAlign=top;spacingLeft=4;spacingRight=4;overflow=hidden;rotatable=0;points=[[0,0.5],[1,0.5]];portConstraint=eastwest;whiteSpace=wrap;html=1;" vertex="1" parent="oy5_rFtbNNdpvlD1gyAk-49">
          <mxGeometry y="26" width="140" height="26" as="geometry" />
        </mxCell>
        <mxCell id="oy5_rFtbNNdpvlD1gyAk-51" value="&lt;span style=&quot;&quot; data-end=&quot;1057&quot; data-start=&quot;1045&quot;&gt;id_libro&lt;/span&gt; (FK Libros)" style="text;strokeColor=none;fillColor=none;align=left;verticalAlign=top;spacingLeft=4;spacingRight=4;overflow=hidden;rotatable=0;points=[[0,0.5],[1,0.5]];portConstraint=eastwest;whiteSpace=wrap;html=1;" vertex="1" parent="oy5_rFtbNNdpvlD1gyAk-49">
          <mxGeometry y="52" width="140" height="26" as="geometry" />
        </mxCell>
        <mxCell id="oy5_rFtbNNdpvlD1gyAk-52" value="&lt;span style=&quot;&quot; data-end=&quot;1087&quot; data-start=&quot;1076&quot;&gt;id_tema&lt;/span&gt; (FK Temas)" style="text;strokeColor=none;fillColor=none;align=left;verticalAlign=top;spacingLeft=4;spacingRight=4;overflow=hidden;rotatable=0;points=[[0,0.5],[1,0.5]];portConstraint=eastwest;whiteSpace=wrap;html=1;" vertex="1" parent="oy5_rFtbNNdpvlD1gyAk-49">
          <mxGeometry y="78" width="140" height="26" as="geometry" />
        </mxCell>
        <mxCell id="oy5_rFtbNNdpvlD1gyAk-53" style="edgeStyle=orthogonalEdgeStyle;rounded=0;orthogonalLoop=1;jettySize=auto;html=1;entryX=1;entryY=0.5;entryDx=0;entryDy=0;" edge="1" parent="oy5_rFtbNNdpvlD1gyAk-1" source="oy5_rFtbNNdpvlD1gyAk-27" target="oy5_rFtbNNdpvlD1gyAk-23">
          <mxGeometry relative="1" as="geometry" />
        </mxCell>
        <mxCell id="oy5_rFtbNNdpvlD1gyAk-54" value="&lt;b&gt;Temas&lt;/b&gt;" style="swimlane;fontStyle=0;childLayout=stackLayout;horizontal=1;startSize=26;fillColor=none;horizontalStack=0;resizeParent=1;resizeParentMax=0;resizeLast=0;collapsible=1;marginBottom=0;whiteSpace=wrap;html=1;" vertex="1" parent="oy5_rFtbNNdpvlD1gyAk-1">
          <mxGeometry x="274" y="450" width="140" height="78" as="geometry" />
        </mxCell>
        <mxCell id="oy5_rFtbNNdpvlD1gyAk-55" value="&lt;span data-end=&quot;947&quot; data-start=&quot;936&quot;&gt;id_tema&lt;/span&gt; (PK)" style="text;strokeColor=none;fillColor=none;align=left;verticalAlign=top;spacingLeft=4;spacingRight=4;overflow=hidden;rotatable=0;points=[[0,0.5],[1,0.5]];portConstraint=eastwest;whiteSpace=wrap;html=1;" vertex="1" parent="oy5_rFtbNNdpvlD1gyAk-54">
          <mxGeometry y="26" width="140" height="26" as="geometry" />
        </mxCell>
        <mxCell id="oy5_rFtbNNdpvlD1gyAk-56" value="Nombre_tema" style="text;strokeColor=none;fillColor=none;align=left;verticalAlign=top;spacingLeft=4;spacingRight=4;overflow=hidden;rotatable=0;points=[[0,0.5],[1,0.5]];portConstraint=eastwest;whiteSpace=wrap;html=1;" vertex="1" parent="oy5_rFtbNNdpvlD1gyAk-54">
          <mxGeometry y="52" width="140" height="26" as="geometry" />
        </mxCell>
        <mxCell id="oy5_rFtbNNdpvlD1gyAk-57" style="edgeStyle=orthogonalEdgeStyle;rounded=0;orthogonalLoop=1;jettySize=auto;html=1;entryX=1;entryY=0.5;entryDx=0;entryDy=0;" edge="1" parent="oy5_rFtbNNdpvlD1gyAk-1" source="oy5_rFtbNNdpvlD1gyAk-28" target="oy5_rFtbNNdpvlD1gyAk-50">
          <mxGeometry relative="1" as="geometry" />
        </mxCell>
        <mxCell id="oy5_rFtbNNdpvlD1gyAk-58" style="edgeStyle=orthogonalEdgeStyle;rounded=0;orthogonalLoop=1;jettySize=auto;html=1;entryX=1.005;entryY=-0.144;entryDx=0;entryDy=0;entryPerimeter=0;" edge="1" parent="oy5_rFtbNNdpvlD1gyAk-1" source="oy5_rFtbNNdpvlD1gyAk-50" target="oy5_rFtbNNdpvlD1gyAk-56">
          <mxGeometry relative="1" as="geometry" />
        </mxCell>
        <mxCell id="oy5_rFtbNNdpvlD1gyAk-59" style="edgeStyle=orthogonalEdgeStyle;rounded=0;orthogonalLoop=1;jettySize=auto;html=1;entryX=0.98;entryY=0.856;entryDx=0;entryDy=0;entryPerimeter=0;" edge="1" parent="oy5_rFtbNNdpvlD1gyAk-1" source="oy5_rFtbNNdpvlD1gyAk-23" target="oy5_rFtbNNdpvlD1gyAk-19">
          <mxGeometry relative="1" as="geometry" />
        </mxCell>
        <mxCell id="oy5_rFtbNNdpvlD1gyAk-60" style="edgeStyle=orthogonalEdgeStyle;rounded=0;orthogonalLoop=1;jettySize=auto;html=1;entryX=0;entryY=0.5;entryDx=0;entryDy=0;" edge="1" parent="oy5_rFtbNNdpvlD1gyAk-1" source="oy5_rFtbNNdpvlD1gyAk-31" target="oy5_rFtbNNdpvlD1gyAk-32">
          <mxGeometry relative="1" as="geometry" />
        </mxCell>
        <mxCell id="oy5_rFtbNNdpvlD1gyAk-61" value="&lt;b&gt;Estados&lt;/b&gt;" style="swimlane;fontStyle=0;childLayout=stackLayout;horizontal=1;startSize=26;fillColor=none;horizontalStack=0;resizeParent=1;resizeParentMax=0;resizeLast=0;collapsible=1;marginBottom=0;whiteSpace=wrap;html=1;" vertex="1" parent="oy5_rFtbNNdpvlD1gyAk-1">
          <mxGeometry x="1241" y="564" width="140" height="78" as="geometry" />
        </mxCell>
        <mxCell id="oy5_rFtbNNdpvlD1gyAk-62" value="&lt;span style=&quot;&quot; data-end=&quot;1637&quot; data-start=&quot;1624&quot;&gt;id_estado&lt;/span&gt; (PK)" style="text;strokeColor=none;fillColor=none;align=left;verticalAlign=top;spacingLeft=4;spacingRight=4;overflow=hidden;rotatable=0;points=[[0,0.5],[1,0.5]];portConstraint=eastwest;whiteSpace=wrap;html=1;" vertex="1" parent="oy5_rFtbNNdpvlD1gyAk-61">
          <mxGeometry y="26" width="140" height="26" as="geometry" />
        </mxCell>
        <mxCell id="oy5_rFtbNNdpvlD1gyAk-63" value="Nombre_estado" style="text;strokeColor=none;fillColor=none;align=left;verticalAlign=top;spacingLeft=4;spacingRight=4;overflow=hidden;rotatable=0;points=[[0,0.5],[1,0.5]];portConstraint=eastwest;whiteSpace=wrap;html=1;" vertex="1" parent="oy5_rFtbNNdpvlD1gyAk-61">
          <mxGeometry y="52" width="140" height="26" as="geometry" />
        </mxCell>
        <mxCell id="oy5_rFtbNNdpvlD1gyAk-64" style="edgeStyle=orthogonalEdgeStyle;rounded=0;orthogonalLoop=1;jettySize=auto;html=1;entryX=0;entryY=0.5;entryDx=0;entryDy=0;" edge="1" parent="oy5_rFtbNNdpvlD1gyAk-1" source="oy5_rFtbNNdpvlD1gyAk-36" target="oy5_rFtbNNdpvlD1gyAk-62">
          <mxGeometry relative="1" as="geometry" />
        </mxCell>
        <mxCell id="oy5_rFtbNNdpvlD1gyAk-65" style="edgeStyle=orthogonalEdgeStyle;rounded=0;orthogonalLoop=1;jettySize=auto;html=1;exitX=1;exitY=0.5;exitDx=0;exitDy=0;entryX=0;entryY=0.5;entryDx=0;entryDy=0;" edge="1" parent="oy5_rFtbNNdpvlD1gyAk-1" source="oy5_rFtbNNdpvlD1gyAk-33" target="oy5_rFtbNNdpvlD1gyAk-36">
          <mxGeometry relative="1" as="geometry" />
        </mxCell>
        <mxCell id="oy5_rFtbNNdpvlD1gyAk-66" style="edgeStyle=orthogonalEdgeStyle;rounded=0;orthogonalLoop=1;jettySize=auto;html=1;exitX=1;exitY=0.5;exitDx=0;exitDy=0;entryX=1;entryY=0.5;entryDx=0;entryDy=0;" edge="1" parent="oy5_rFtbNNdpvlD1gyAk-1" source="oy5_rFtbNNdpvlD1gyAk-34" target="oy5_rFtbNNdpvlD1gyAk-12">
          <mxGeometry relative="1" as="geometry" />
        </mxCell>
        <mxCell id="oy5_rFtbNNdpvlD1gyAk-67" style="edgeStyle=orthogonalEdgeStyle;rounded=0;orthogonalLoop=1;jettySize=auto;html=1;exitX=0;exitY=0.5;exitDx=0;exitDy=0;entryX=1;entryY=0.5;entryDx=0;entryDy=0;" edge="1" parent="oy5_rFtbNNdpvlD1gyAk-1" source="oy5_rFtbNNdpvlD1gyAk-12" target="oy5_rFtbNNdpvlD1gyAk-3">
          <mxGeometry relative="1" as="geometry" />
        </mxCell>
        <mxCell id="oy5_rFtbNNdpvlD1gyAk-68" value="&lt;b&gt;Tipos_Prestamos&lt;/b&gt;" style="swimlane;fontStyle=0;childLayout=stackLayout;horizontal=1;startSize=26;fillColor=none;horizontalStack=0;resizeParent=1;resizeParentMax=0;resizeLast=0;collapsible=1;marginBottom=0;whiteSpace=wrap;html=1;" vertex="1" parent="oy5_rFtbNNdpvlD1gyAk-1">
          <mxGeometry x="960" y="716" width="140" height="78" as="geometry" />
        </mxCell>
        <mxCell id="oy5_rFtbNNdpvlD1gyAk-69" value="&lt;span data-end=&quot;2183&quot; data-start=&quot;2163&quot;&gt;id_tipo_prestamo&lt;/span&gt; (PK)" style="text;strokeColor=none;fillColor=none;align=left;verticalAlign=top;spacingLeft=4;spacingRight=4;overflow=hidden;rotatable=0;points=[[0,0.5],[1,0.5]];portConstraint=eastwest;whiteSpace=wrap;html=1;" vertex="1" parent="oy5_rFtbNNdpvlD1gyAk-68">
          <mxGeometry y="26" width="140" height="26" as="geometry" />
        </mxCell>
        <mxCell id="oy5_rFtbNNdpvlD1gyAk-70" value="Descripcion" style="text;strokeColor=none;fillColor=none;align=left;verticalAlign=top;spacingLeft=4;spacingRight=4;overflow=hidden;rotatable=0;points=[[0,0.5],[1,0.5]];portConstraint=eastwest;whiteSpace=wrap;html=1;" vertex="1" parent="oy5_rFtbNNdpvlD1gyAk-68">
          <mxGeometry y="52" width="140" height="26" as="geometry" />
        </mxCell>
        <mxCell id="oy5_rFtbNNdpvlD1gyAk-71" style="edgeStyle=orthogonalEdgeStyle;rounded=0;orthogonalLoop=1;jettySize=auto;html=1;exitX=1;exitY=0.5;exitDx=0;exitDy=0;entryX=0;entryY=0.5;entryDx=0;entryDy=0;" edge="1" parent="oy5_rFtbNNdpvlD1gyAk-1" source="oy5_rFtbNNdpvlD1gyAk-13" target="oy5_rFtbNNdpvlD1gyAk-69">
          <mxGeometry relative="1" as="geometry" />
        </mxCell>
        <mxCell id="oy5_rFtbNNdpvlD1gyAk-72" style="edgeStyle=orthogonalEdgeStyle;rounded=0;orthogonalLoop=1;jettySize=auto;html=1;entryX=1;entryY=0.5;entryDx=0;entryDy=0;" edge="1" parent="oy5_rFtbNNdpvlD1gyAk-1" source="oy5_rFtbNNdpvlD1gyAk-3" target="oy5_rFtbNNdpvlD1gyAk-7">
          <mxGeometry relative="1" as="geometry" />
        </mxCell>
      </root>
    </mxGraphModel>
  </diagram>
</mxfile>
